<?xml version="1.0" encoding="UTF-8" standalone="no"?>
<!-- Generator: Adobe Illustrator 14.0.0, SVG Export Plug-In . SVG Version: 6.00 Build 43363)  -->

<svg
   version="1.1"
   id="Layer_1"
   x="0px"
   y="0px"
   width="374.96069"
   height="245.9897"
   xml:space="preserve"
   sodipodi:docname="seqanlogo.svg"
   inkscape:version="1.1.1 (3bf5ae0d25, 2021-09-20)"
   xmlns:inkscape="http://www.inkscape.org/namespaces/inkscape"
   xmlns:sodipodi="http://sodipodi.sourceforge.net/DTD/sodipodi-0.dtd"
   xmlns="http://www.w3.org/2000/svg"
   xmlns:svg="http://www.w3.org/2000/svg"><defs
   id="defs5414" /><sodipodi:namedview
   id="namedview5412"
   pagecolor="#505050"
   bordercolor="#ffffff"
   borderopacity="1"
   inkscape:pageshadow="0"
   inkscape:pageopacity="0"
   inkscape:pagecheckerboard="1"
   showgrid="false"
   inkscape:zoom="2.0346154"
   inkscape:cx="185.53875"
   inkscape:cy="61.68242"
   inkscape:window-width="2560"
   inkscape:window-height="1417"
   inkscape:window-x="1912"
   inkscape:window-y="-8"
   inkscape:window-maximized="1"
   inkscape:current-layer="Layer_1" />
<path
   stroke="#000000"
   stroke-width="2"
   d="m 334.476,35.372859 c 0,0 -39.56,4.232 -72.921,22.145 -37.645,20.213 -46.2,26.53 -66.734,48.637001 -18.238,19.635 -24.51,39.764 -23.956,60.638 0.57,21.476 7.127,36.316 22.245,53.059 15.4,17.054 35.934,24.634 35.934,24.634 l 6.275,-19.581 c 0,0 -20.936,-6.598 -36.335,-23.651 -15.119,-16.743 -21.274,-32.565 -21.845,-54.041 -0.554,-20.874 5.717,-41.003 23.956,-60.639001 20.534,-22.107 29.09,-28.424 66.733,-48.637 13.981,-7.505 28.932,-13.659 41.738,-17.049 M 235.281,224.88786 c 13.117,-3.384 27.15,-9.24 41.675,-17.039 37.644,-20.212 46.199,-26.528 66.733,-48.636 18.239,-19.637 24.511,-39.765 23.956,-60.639001 -0.57,-21.476 -7.126,-36.316 -22.245,-53.058 -15.4,-17.055 -35.934,-24.635 -35.934,-24.635 l 6.275,-19.5809995 c 0,0 20.532,7.58 35.934,24.6339995 15.117,16.741 21.674,31.583 22.244,53.059 0.555,20.875 -5.717,41.000001 -23.957,60.637001 -20.533,22.108 -29.088,28.424 -66.732,48.637 -33.361,17.912 -73.839,22.236 -73.839,22.236"
   id="path5387" />
<polygon
   fill="#ffffff"
   stroke="#000000"
   stroke-width="2"
   points="283.807,212.729 426.095,271.829 410.945,287.886 269.716,229.226 "
   id="polygon5389"
   transform="translate(-74.707,-128.07214)" />
<polygon
   fill="#ffffff"
   stroke="#000000"
   stroke-width="2"
   points="321.547,185.745 444.131,236.66 436.359,255.783 300.585,199.419 "
   id="polygon5391"
   transform="translate(-74.707,-128.07214)" />
<polygon
   fill="#ffffff"
   stroke="#000000"
   stroke-width="2"
   points="370.162,164.124 443.922,194.759 441.309,216.023 342.228,174.87 "
   id="polygon5393"
   transform="translate(-74.707,-128.07214)" />
<polygon
   fill="#ffffff"
   stroke="#000000"
   stroke-width="2"
   points="372.994,316.244 250.41,265.329 258.181,246.206 393.955,302.569 "
   id="polygon5395"
   transform="translate(-74.707,-128.07214)" />
<polygon
   fill="#ffffff"
   stroke="#000000"
   stroke-width="2"
   points="322.983,337.286 250.619,307.229 252.072,285.377 352.014,326.995 "
   id="polygon5397"
   transform="translate(-74.707,-128.07214)" />
<path
   fill="#fee400"
   stroke="#000000"
   stroke-width="2"
   d="m 67.357,151.33786 c 0,7.646 -3.241,13.858 -9.722,18.635 -6.481,4.779 -15.282,7.167 -26.402,7.167 -6.43,0 -12.033,-0.565 -16.811,-1.694 -4.778,-1.129 -9.252,-2.563 -13.422,-4.301 v -18.609 h 2.189 c 4.135,3.302 8.765,5.838 13.892,7.61 5.125,1.772 10.051,2.659 14.778,2.659 1.216,0 2.815,-0.104 4.795,-0.313 1.981,-0.208 3.597,-0.556 4.848,-1.042 1.529,-0.625 2.789,-1.407 3.779,-2.346 0.99,-0.939 1.486,-2.328 1.486,-4.17 0,-1.703 -0.722,-3.171 -2.164,-4.405 -1.442,-1.233 -3.553,-2.18 -6.333,-2.841 -2.919,-0.695 -6.004,-1.346 -9.252,-1.955 -3.25,-0.607 -6.299,-1.381 -9.148,-2.319 -6.534,-2.12 -11.233,-4.995 -14.1,-8.627 -2.867,-3.631 -4.3,-8.14 -4.3,-13.527 0,-7.228 3.24,-13.127 9.721,-17.697 6.481,-4.569001 14.813,-6.855001 24.995,-6.855001 5.108,0 10.156,0.496 15.143,1.486 4.986,0.99 9.304,2.233001 12.953,3.727001 v 17.879 h -2.137 c -3.127,-2.502 -6.958,-4.595 -11.494,-6.281 -4.535,-1.685 -9.166,-2.528 -13.892,-2.528 -1.668,0 -3.328,0.113 -4.978,0.339 -1.651,0.227 -3.241,0.652 -4.77,1.277 -1.355,0.521 -2.52,1.312 -3.493,2.372 -0.973,1.061 -1.459,2.268 -1.459,3.623 0,2.051 0.782,3.623 2.346,4.718 1.564,1.095 4.517,2.094 8.861,2.997 2.849,0.591 5.586,1.165 8.21,1.72 2.624,0.557 5.447,1.321 8.471,2.293 5.942,1.947 10.329,4.596 13.162,7.949 2.831,3.356 4.248,7.708 4.248,13.059 z"
   id="path5399" />
<path
   fill="#fee400"
   stroke="#000000"
   stroke-width="2"
   d="M 130.801,175.73386 H 74.661 V 98.117859 h 56.14 V 113.12986 H 94.573 v 13.396 h 33.621 v 15.013 H 94.573 v 19.182 h 36.228 z"
   id="path5401" />
<path
   fill="#fee400"
   stroke="#000000"
   stroke-width="2"
   d="m 182.88,176.52586 c 3.6,8.487 8.671,15.578 16.23,23.949 15.4,17.054 35.934,24.634 35.934,24.634 l -6.274,19.581 c 0,0 -20.534,-7.58 -35.934,-24.634 -12.666,-14.026 -19.322,-26.718 -21.483,-43.094 -11.003,-0.567 -19.751,-4.181 -26.242,-10.843 -7.093,-7.281 -10.64,-17.11 -10.64,-29.485 0,-12.479 3.546,-22.341 10.64,-29.589 7.094,-7.248001 16.883,-10.872001 29.366,-10.872001 12.448,0 22.237,3.624 29.366,10.872001 7.129,7.248 10.694,17.11 10.694,29.589 0,12.375 -3.549,22.204 -10.642,29.485 -5.244,5.382 -12.661,9.011 -20.87,10.415 z m -2.146,-56.155 c -2.818,8.892 -3.889,17.907 -3.646,27.064 0.137,5.177 0.623,9.969 1.492,14.494 l 0.214,-0.046 c 0.175,-0.041 0.351,-0.084 0.525,-0.13 0.87,-0.229 1.723,-0.52 2.562,-0.877 2.329,-0.988 4.364,-2.525 6.103,-4.61 1.945,-2.36 3.388,-5.146 4.327,-8.357 0.938,-3.211 1.409,-6.987 1.409,-11.328 0,-4.654 -0.54,-8.611 -1.618,-11.876 -1.078,-3.263 -2.485,-5.9 -4.222,-7.915 -1.774,-2.083 -3.818,-3.593 -6.128,-4.531 -2.312,-0.938 -4.718,-1.408 -7.22,-1.408 -2.54,0 -4.929,0.453 -7.17,1.355 -2.244,0.903 -4.304,2.396 -6.18,4.479 -1.739,1.943 -3.155,4.627 -4.25,8.046 -1.097,3.419 -1.643,7.387 -1.643,11.899 0,4.62 0.53,8.553 1.591,11.799 1.059,3.246 2.458,5.892 4.197,7.94 1.739,2.049 3.772,3.561 6.101,4.533 1.02,0.426 2.064,0.758 3.131,0.998 0.061,0.013 0.121,0.026 0.182,0.04 l 0.301,0.061 c 0.212,-11.386 2.3,-22.554 7.821,-33.545"
   id="path5403" />
<path
   fill="#fee400"
   stroke="#000000"
   stroke-width="2"
   d="m 364.827,119.99086 c 0.454,-0.811 0.886,-1.624 1.294,-2.437 6.33,-12.601 8.147,-25.433001 7.799,-38.561001 -0.57,-21.477 -7.127,-36.318 -22.244,-53.059 C 336.275,8.8798595 315.742,1.2998595 315.742,1.2998595 l -6.275,19.5809995 c 0,0 20.533,7.58 35.934,24.635 15.119,16.741 21.675,31.582 22.245,53.058 0.243,9.158001 -0.827,18.172001 -3.646,27.064001"
   id="path5405" />
<path
   stroke="#000000"
   stroke-width="2"
   d="m 291.789,175.73586 h -20.672 l -5.406,-15.69 h -28.723 l -5.407,15.69 H 211.41 l 28.669,-77.616001 h 23.04 z m -30.891,-29.921 -9.549,-27.806 -9.551,27.806 z"
   id="path5407" />
<path
   stroke="#000000"
   stroke-width="2"
   d="m 366.689,175.73586 h -19.286 l -32.944,-53.273 v 53.273 H 296.111 V 98.119859 h 23.926 l 28.305,44.464001 V 98.119859 h 18.348 v 77.616001 z"
   id="path5409" />
</svg>
